# xmcd CD database file
#
# Track frame offsets:
#	150
#	14237
#	31322
#	47432
#	63897
#	78340
#	91102
#	104065
#	115930
#	131617
#	146457
#	158922
#	171272
#	188050
#	201917
#	214292
#	231647
#	246987
#
# Disc length: 3517 seconds
#
# Revision: 0
# Processed by: cddbd v1.4PL0 Copyright (c) Steve Scherf et al.
# Submitted via: CDex 1.50beta10
#
DISCID=050dbb12
DTITLE=Various Artist - Allagash Country Shooting Stars
DYEAR=1991
DGENRE=Country
TTITLE0=Cardboard Box - Rich Gowell
TTITLE1=Night After Night - Rich Gowell
TTITLE2=Rescue Me - Jeannie MArtin
TTITLE3=Workin' Your Way To My Heart - Kevin Cronin
TTITLE4=Don't Wake Me - Kevin Cronin
TTITLE5=Miss Behave - Randall Cousins
TTITLE6=Grandpa's Song - T.J. Thomas and Diamond Back
TTITLE7=Don't Leave Love Alone Too Long - Ray Sanders
TTITLE8=You and Texas On My Mind - Ray Sanders
TTITLE9=Don't Get Your Feathers Ruffled - Karyl
TTITLE10=Once Upon A Mwmory - Karyl
TTITLE11=She Keeps Putting My Heart On Hold - Rick Johnson
TTITLE12=Weepin' On A Willopw - The Buffalo's
TTITLE13=Railroad Man - Special Blend
TTITLE14=Since He's Gone, SHe's Playing Radio Games - Darlene Blomquist
TTITLE15=Teardrops In My Eyes - Oneal McKnight
TTITLE16=Love Me Now - Oneal McKnight
TTITLE17=Need A Little Love - Phil and Sassafras
EXTD=YEAR: 1991
EXTT0=
EXTT1=
EXTT2=
EXTT3=
EXTT4=
EXTT5=
EXTT6=
EXTT7=
EXTT8=
EXTT9=
EXTT10=
EXTT11=
EXTT12=
EXTT13=
EXTT14=
EXTT15=
EXTT16=
EXTT17=
PLAYORDER=
